Coordinates
version=1
nRows=17
nColumns=36
inDegrees=yes

Units are S.I. units (second, meters, Newtons, ...)
If the header above contains a line with 'inDegrees', this indicates whether rotational values are in degrees (yes) or radians (no).

endheader
time	pelvis_tilt	pelvis_list	pelvis_rotation	pelvis_tx	pelvis_ty	pelvis_tz	hip_flexion_r	hip_adduction_r	hip_rotation_r	knee_angle_r	knee_angle_r_beta	ankle_angle_r	subtalar_angle_r	mtp_angle_r	hip_flexion_l	hip_adduction_l	hip_rotation_l	knee_angle_l	knee_angle_l_beta	ankle_angle_l	subtalar_angle_l	mtp_angle_l	lumbar_extension	lumbar_bending	lumbar_rotation	arm_flex_r	arm_add_r	arm_rot_r	elbow_flex_r	pro_sup_r	arm_flex_l	arm_add_l	arm_rot_l	elbow_flex_l	pro_sup_l
      1.19000000	    -23.45987241	     -3.29484433	      0.33524824	     -0.35945912	      0.70898634	     -0.59547807	     81.33486719	     -1.27920400	     -0.65089628	     86.04567628	      1.50178036	     26.21341703	     -8.82140988	     -7.41555109	     80.10222612	     -3.58779238	      9.30361492	     92.32495803	      1.61137450	     22.14902441	    -13.36265415	     -7.41555109	    -35.30547136	     -1.86889237	     -4.61896899	     43.20528906	     -8.85877656	      8.49028433	    111.11944992	    104.79260477	     62.73577494	     -9.81421661	     25.27925805	     93.44798568	    110.80146278
      1.20000000	    -23.93842889	     -3.22317650	      0.13606863	     -0.35698198	      0.71001222	     -0.59555586	     81.68193945	     -1.51158141	     -0.91196762	     85.97410835	      1.50053126	     26.03597704	     -8.24288684	     -7.41632129	     80.58914606	     -3.90638651	      9.08263625	     92.41246839	      1.61290184	     21.46483258	    -12.99091116	     -7.41632129	    -35.69011525	     -1.79898412	     -4.48169410	     43.53439892	     -7.45520278	      7.97861396	    110.99707872	    104.84324987	     62.70191153	     -8.86429678	     24.49281264	     92.94700911	    110.77009876
      1.21000000	    -24.32574238	     -3.18968122	     -0.07029205	     -0.35451037	      0.71144768	     -0.59541103	     81.89760571	     -1.68818178	     -1.26564033	     85.87994990	      1.49888789	     25.81693282	     -7.71258212	     -7.41725680	     81.00105839	     -4.27457023	      8.87431718	     92.49617966	      1.61436288	     20.64590275	    -12.68606926	     -7.41725680	    -36.11368821	     -1.72539019	     -4.30393943	     43.69520534	     -6.35387217	      7.61353614	    111.01401112	    104.94233163	     62.53092933	     -8.04299019	     23.75951654	     92.69038115	    110.79242925
      1.22000000	    -24.60504146	     -3.14786758	     -0.30554153	     -0.35214659	      0.71329541	     -0.59502540	     81.96585252	     -1.76489114	     -1.60166774	     85.72184650	      1.49612846	     25.51750754	     -7.37677687	     -7.41783717	     81.28739661	     -4.67133827	      8.67137814	     92.55903492	      1.61545991	     19.92345621	    -12.44021734	     -7.41783717	    -36.57813412	     -1.67306850	     -4.15464975	     43.76102210	     -5.35102482	      7.41629333	    111.16636322	    105.01535797	     62.35507525	     -7.62562998	     23.28975306	     92.45720873	    110.80111164
      1.23000000	    -24.83032085	     -3.15025318	     -0.53340590	     -0.34995571	      0.71536170	     -0.59468291	     81.95380572	     -1.79594114	     -1.93158545	     85.49647060	      1.49219491	     25.10785305	     -7.07210925	     -7.41838562	     81.52469156	     -5.03628871	      8.57040220	     92.59952187	      1.61616654	     19.08205524	    -12.15733591	     -7.41838562	    -37.03909700	     -1.57197590	     -3.96083022	     43.70472307	     -4.47483190	      7.16066575	    111.35384961	    105.08400745	     62.09283896	     -7.34405618	     22.89394557	     92.19334931	    110.81060753
      1.24000000	    -25.02347644	     -3.24949624	     -0.72506830	     -0.34790699	      0.71752728	     -0.59452813	     81.90704381	     -1.83619418	     -2.31142641	     85.23235834	      1.48758528	     24.50076508	     -6.94403320	     -7.42090025	     81.75346624	     -5.32757350	      8.62248401	     92.62213952	      1.61656129	     17.73788851	    -12.34277219	     -7.42090025	    -37.44636189	     -1.35551144	     -3.57833249	     43.42275647	     -3.95422380	      6.78545957	    111.65541653	    105.38921151	     61.78946671	     -6.90964935	     22.55650652	     91.56760746	    111.00600362
      1.25000000	    -25.09002760	     -3.20921822	     -0.92761909	     -0.34573933	      0.72003936	     -0.59436028	     81.74625259	     -1.93011744	     -2.53108432	     84.99903750	      1.48351307	     24.27170752	     -6.78001127	     -7.42107770	     81.71289786	     -5.58189446	      8.50316462	     92.56167056	      1.61550591	     17.46765025	    -12.22426339	     -7.42107770	    -37.86351084	     -1.29271522	     -3.52958401	     42.99995351	     -3.39042802	      6.82541704	    111.73044308	    105.41228693	     61.35370906	     -7.01363995	     22.47365146	     91.07310305	    110.97083519
      1.26000000	    -25.04894567	     -3.28979013	     -1.20056580	     -0.34369194	      0.72307304	     -0.59392894	     81.45343535	     -1.82927052	     -2.72533180	     84.69513026	      1.47820888	     23.30818369	     -6.20210258	     -7.42186591	     81.55225452	     -5.91478309	      8.57385705	     92.46999772	      1.61390592	     16.31289337	    -11.95668422	     -7.42186591	    -38.26535319	     -1.25993002	     -3.30763000	     42.39340877	     -2.64255191	      6.22039967	    111.35855555	    105.40441847	     60.97816301	     -6.84353042	     21.94088464	     89.62907159	    110.85668105
      1.27000000	    -25.08623824	     -3.27409753	     -1.40078533	     -0.34145622	      0.72627905	     -0.59349383	     81.20667660	     -1.81099505	     -2.82725649	     84.34940790	      1.47217489	     22.64905363	     -5.83938149	     -7.42250268	     81.36757099	     -6.15631166	      8.50954677	     92.25000063	      1.61006625	     15.58868873	    -11.97326565	     -7.42250268	    -38.53662516	     -1.26583827	     -3.26290801	     41.50389707	     -1.99056026	      5.95021805	    111.13098424	    105.39559732	     60.41256591	     -6.96326435	     21.61845383	     88.20671434	    110.72866303
      1.28000000	    -25.12782132	     -3.22165266	     -1.57000141	     -0.33918756	      0.72963558	     -0.59314660	     80.96665933	     -1.85927311	     -2.91158667	     83.99784108	      1.46603889	     21.93656563	     -5.48129856	     -7.42321539	     81.14114943	     -6.34039123	      8.38358919	     91.95702735	      1.60495290	     14.78938898	    -12.07214346	     -7.42321539	    -38.73440734	     -1.29567730	     -3.21095356	     40.43442389	     -1.49957956	      5.63293327	    110.75749041	    105.36202685	     59.73288667	     -7.00359117	     21.18100530	     86.68696675	    110.57270915
      1.29000000	    -25.16027599	     -3.19910785	     -1.68667510	     -0.33670132	      0.73315654	     -0.59275179	     80.65020978	     -1.95048940	     -3.12423450	     83.63417260	      1.45969168	     21.70364416	     -5.33885244	     -7.42336777	     80.86541151	     -6.52999677	      8.22125950	     91.63663196	      1.59936094	     14.53336933	    -12.04495076	     -7.42336777	    -38.98604342	     -1.27505155	     -3.23022142	     39.16788318	     -1.32742823	      5.68269398	    110.64095364	    105.35428846	     58.85408687	     -7.38918381	     20.97471164	     85.98894273	    110.49898046
      1.30000000	    -25.37156652	     -3.19259806	     -1.90782012	     -0.33457685	      0.73656728	     -0.59219771	     80.51128622	     -1.89298553	     -3.27935504	     83.12175973	      1.45074839	     20.73854586	     -4.87450340	     -7.42401740	     80.80809880	     -6.84170233	      8.09545842	     91.24227536	      1.59247812	     13.32478535	    -12.07983063	     -7.42401740	    -38.81071123	     -1.30613047	     -3.17270708	     37.86601840	     -0.90578238	      5.36752491	    109.85098180	    105.24173368	     57.83555623	     -7.10244373	     19.79338698	     84.14024760	    110.27494613
      1.31000000	    -25.61980195	     -3.24817436	     -2.00880704	     -0.33236846	      0.73970266	     -0.59191942	     80.36211042	     -1.96030512	     -3.60100987	     82.66645977	      1.44280190	     20.13447605	     -4.82449696	     -7.42496347	     80.81899370	     -7.01712826	      8.03840297	     90.88807269	      1.58629612	     12.22610610	    -12.51814964	     -7.42496347	    -38.60226142	     -1.23232553	     -3.07023477	     36.40256037	     -1.04732798	      5.38206237	    109.34981800	    105.13213930	     56.54951008	     -6.98393466	     18.90112052	     83.23444825	    110.21680869
      1.32000000	    -25.68078216	     -3.21590950	     -2.08349206	     -0.33014055	      0.74318761	     -0.59160665	     79.97986653	     -2.05993139	     -3.86998775	     82.19396397	      1.43455530	     19.98783286	     -4.75964350	     -7.42511368	     80.53221545	     -7.17291661	      7.89367556	     90.47870735	      1.57915135	     11.99877434	    -12.50358992	     -7.42511368	    -38.67893020	     -1.26257260	     -3.08551075	     34.99624856	     -1.26203274	      5.45019711	    109.08714877	    105.10791835	     55.44978423	     -7.36283328	     18.72055961	     82.88222570	    110.18924619
      1.33000000	    -26.10149097	     -3.30449753	     -2.29497128	     -0.32824457	      0.74619162	     -0.59110484	     79.93097398	     -1.94930706	     -4.16700289	     81.53624141	      1.42307587	     19.25815588	     -4.56945547	     -7.42593286	     80.68834315	     -7.50825176	      7.88728873	     90.02479862	      1.57122914	     10.77391087	    -12.60546390	     -7.42593286	    -38.12512774	     -1.18199113	     -3.05119774	     33.66280904	     -1.39351193	      5.66348202	    108.01132647	    104.97969696	     53.83909469	     -7.28451987	     17.47551684	     82.27929452	    110.11870950
      1.34000000	    -26.12253374	     -3.25873368	     -2.32277395	     -0.32610451	      0.74971388	     -0.59085768	     79.46989932	     -2.10091425	     -4.39652316	     81.03410586	      1.41431195	     19.14441271	     -4.50070742	     -7.42605193	     80.29017213	     -7.59951361	      7.78756492	     89.54092394	      1.56278394	     10.59871415	    -12.56008623	     -7.42605193	    -38.11729636	     -1.20820956	     -3.07361329	     32.20127586	     -1.79520864	      5.70621696	    107.69545531	    104.95252372	     52.63565570	     -7.66399614	     17.38961192	     82.13700784	    110.11335806
      1.35000000	    -26.52928975	     -3.33981080	     -2.34860234	     -0.32421951	      0.75283421	     -0.59078533	     79.33091274	     -2.15994479	     -4.64882267	     80.29649739	      1.40143826	     18.51192030	     -4.47130869	     -7.42849207	     80.30121201	     -7.61911884	      7.90585335	     88.90700994	      1.55172005	      9.14840623	    -13.19837475	     -7.42849207	    -37.57580574	     -0.95503484	     -3.59831578	     31.26184116	     -1.92725493	      6.42298899	    106.23976333	    104.63571710	     50.49882462	     -8.08550435	     15.81754075	     82.96992718	    110.26347832
